<?xml version="1.0" encoding="UTF-8" standalone="no"?>
<!DOCTYPE svg PUBLIC "-//W3C//DTD SVG 1.1//EN"
 "http://www.w3.org/Graphics/SVG/1.1/DTD/svg11.dtd">
<!-- Generated by graphviz version 2.43.0 (0)
 -->
<!-- Title: biomodalDuetUltima Pages: 1 -->
<svg width="621pt" height="847pt"
 viewBox="0.00 0.00 621.00 847.00" xmlns="http://www.w3.org/2000/svg" xmlns:xlink="http://www.w3.org/1999/xlink">
<g id="graph0" class="graph" transform="scale(1 1) rotate(0) translate(4 843)">
<title>biomodalDuetUltima</title>
<polygon fill="white" stroke="transparent" points="-4,4 -4,-843 617,-843 617,4 -4,4"/>
<g id="clust1" class="cluster">
<title>cluster_nf</title>
<path fill="none" stroke="#6b8e4e" stroke-dasharray="5,2" d="M75,-65C75,-65 513,-65 513,-65 519,-65 525,-71 525,-77 525,-77 525,-512 525,-512 525,-518 519,-524 513,-524 513,-524 75,-524 75,-524 69,-524 63,-518 63,-512 63,-512 63,-77 63,-77 63,-71 69,-65 75,-65"/>
<text text-anchor="middle" x="294" y="-512" font-family="Helvetica,sans-Serif" font-size="10.00" fill="#333333">call&#45;runDuet &#45;&#45; ONE Cromwell task.</text>
<text text-anchor="middle" x="294" y="-501" font-family="Helvetica,sans-Serif" font-size="10.00" fill="#333333">Everything below is a Nextflow process that Nextflow submits to SGE itself.</text>
</g>
<g id="clust2" class="cluster">
<title>cluster_perlane</title>
<path fill="#f4f9ee" stroke="#a8c088" d="M111,-344C111,-344 267,-344 267,-344 273,-344 279,-350 279,-356 279,-356 279,-474 279,-474 279,-480 273,-486 267,-486 267,-486 111,-486 111,-486 105,-486 99,-480 99,-474 99,-474 99,-356 99,-356 99,-350 105,-344 111,-344"/>
<text text-anchor="middle" x="189" y="-474.8" font-family="Helvetica,sans-Serif" font-size="9.00" fill="#333333">per pseudo&#45;lane, N&#45;way parallel</text>
</g>
<g id="clust4" class="cluster">
<title>cluster_legend</title>
<path fill="none" stroke="#bbbbbb" d="M359,-613C359,-613 487,-613 487,-613 493,-613 499,-619 499,-625 499,-625 499,-819 499,-819 499,-825 493,-831 487,-831 487,-831 359,-831 359,-831 353,-831 347,-825 347,-819 347,-819 347,-625 347,-625 347,-619 353,-613 359,-613"/>
<text text-anchor="middle" x="423" y="-819.8" font-family="Helvetica,sans-Serif" font-size="9.00" fill="#333333">legend</text>
</g>
<!-- splitCram -->
<g id="node1" class="node">
<title>splitCram</title>
<path fill="#d6e4f0" stroke="#4a7ba7" d="M182,-738C182,-738 12,-738 12,-738 6,-738 0,-732 0,-726 0,-726 0,-709 0,-709 0,-703 6,-697 12,-697 12,-697 182,-697 182,-697 188,-697 194,-703 194,-709 194,-709 194,-726 194,-726 194,-732 188,-738 182,-738"/>
<text text-anchor="middle" x="97" y="-726" font-family="Helvetica,sans-Serif" font-size="10.00">splitCram</text>
<text text-anchor="middle" x="97" y="-715" font-family="Helvetica,sans-Serif" font-size="10.00">(skipped unless splitCramReads &gt; 0</text>
<text text-anchor="middle" x="97" y="-704" font-family="Helvetica,sans-Serif" font-size="10.00">and exactly one input CRAM)</text>
</g>
<!-- parts -->
<g id="node4" class="node">
<title>parts</title>
<polygon fill="#f0f0f0" stroke="#888888" points="183,-657 39,-657 39,-621 189,-621 189,-651 183,-657"/>
<polyline fill="none" stroke="#888888" points="183,-657 183,-651 "/>
<polyline fill="none" stroke="#888888" points="189,-651 183,-651 "/>
<text text-anchor="middle" x="114" y="-642" font-family="Helvetica,sans-Serif" font-size="10.00">N CRAM parts + .crai</text>
<text text-anchor="middle" x="114" y="-631" font-family="Helvetica,sans-Serif" font-size="10.00">reads lacking tp/t0 dropped</text>
</g>
<!-- splitCram&#45;&gt;parts -->
<g id="edge9" class="edge">
<title>splitCram&#45;&gt;parts</title>
<path fill="none" stroke="#555555" d="M101.38,-696.8C103.39,-687.76 105.8,-676.9 107.98,-667.11"/>
<polygon fill="#555555" stroke="#555555" points="111.46,-667.56 110.21,-657.04 104.63,-666.04 111.46,-667.56"/>
</g>
<!-- stage -->
<g id="node2" class="node">
<title>stage</title>
<path fill="#d6e4f0" stroke="#4a7ba7" d="M263,-589C263,-589 115,-589 115,-589 109,-589 103,-583 103,-577 103,-577 103,-560 103,-560 103,-554 109,-548 115,-548 115,-548 263,-548 263,-548 269,-548 275,-554 275,-560 275,-560 275,-577 275,-577 275,-583 269,-589 263,-589"/>
<text text-anchor="middle" x="189" y="-577" font-family="Helvetica,sans-Serif" font-size="10.00">runDuet: stage instance dir,</text>
<text text-anchor="middle" x="189" y="-566" font-family="Helvetica,sans-Serif" font-size="10.00">apply patches 1b/1c/3a&#45;3e/4/6b,</text>
<text text-anchor="middle" x="189" y="-555" font-family="Helvetica,sans-Serif" font-size="10.00">stage CRAMs as lanes</text>
</g>
<!-- prelude -->
<g id="node9" class="node">
<title>prelude</title>
<polygon fill="#dcecc9" stroke="#6b8e4e" points="271,-460 107,-460 107,-419 271,-419 271,-460"/>
<text text-anchor="middle" x="189" y="-448" font-family="Helvetica,sans-Serif" font-size="10.00">PRELUDE</text>
<text text-anchor="middle" x="189" y="-437" font-family="Helvetica,sans-Serif" font-size="10.00">resolve original + copy strand</text>
<text text-anchor="middle" x="189" y="-426" font-family="Helvetica,sans-Serif" font-size="10.00">~17.6h per 150M&#45;read part</text>
</g>
<!-- stage&#45;&gt;prelude -->
<g id="edge12" class="edge">
<title>stage&#45;&gt;prelude</title>
<path fill="none" stroke="#555555" d="M189,-547.93C189,-543.74 189,-539.04 189,-534.01"/>
<polygon fill="#555555" stroke="#555555" points="192.5,-534 189,-524 185.5,-534 192.5,-534"/>
</g>
<!-- in_cram -->
<g id="node3" class="node">
<title>in_cram</title>
<polygon fill="#f0f0f0" stroke="#888888" points="233,-805 85,-805 85,-769 239,-769 239,-799 233,-805"/>
<polyline fill="none" stroke="#888888" points="233,-805 233,-799 "/>
<polyline fill="none" stroke="#888888" points="239,-799 233,-799 "/>
<text text-anchor="middle" x="162" y="-790" font-family="Helvetica,sans-Serif" font-size="10.00">one unaligned Ultima CRAM</text>
<text text-anchor="middle" x="162" y="-779" font-family="Helvetica,sans-Serif" font-size="10.00">~2.27B reads, ~494 GB</text>
</g>
<!-- in_cram&#45;&gt;splitCram -->
<g id="edge8" class="edge">
<title>in_cram&#45;&gt;splitCram</title>
<path fill="none" stroke="#555555" d="M145.6,-768.97C138.83,-761.94 130.81,-753.61 123.26,-745.77"/>
<polygon fill="#555555" stroke="#555555" points="125.39,-742.94 115.93,-738.16 120.35,-747.79 125.39,-742.94"/>
</g>
<!-- in_cram&#45;&gt;stage -->
<g id="edge11" class="edge">
<title>in_cram&#45;&gt;stage</title>
<path fill="none" stroke="#555555" stroke-dasharray="5,2" d="M183.26,-768.63C191.73,-760.35 200.52,-749.7 205,-738 222.64,-691.86 210.22,-633.66 199.6,-599.13"/>
<polygon fill="#555555" stroke="#555555" points="202.8,-597.66 196.4,-589.21 196.14,-599.81 202.8,-597.66"/>
<text text-anchor="middle" x="262.5" y="-674.8" font-family="Helvetica,sans-Serif" font-size="9.00"> &#160;splitCramReads = &#45;1</text>
</g>
<!-- parts&#45;&gt;stage -->
<g id="edge10" class="edge">
<title>parts&#45;&gt;stage</title>
<path fill="none" stroke="#555555" d="M132.93,-620.71C141.13,-613.22 150.92,-604.28 160.01,-595.98"/>
<polygon fill="#555555" stroke="#555555" points="162.4,-598.53 167.43,-589.2 157.68,-593.36 162.4,-598.53"/>
</g>
<!-- out_bam -->
<g id="node5" class="node">
<title>out_bam</title>
<polygon fill="#f0f0f0" stroke="#888888" points="112,-38.5 4,-38.5 4,-2.5 118,-2.5 118,-32.5 112,-38.5"/>
<polyline fill="none" stroke="#888888" points="112,-38.5 112,-32.5 "/>
<polyline fill="none" stroke="#888888" points="118,-32.5 112,-32.5 "/>
<text text-anchor="middle" x="61" y="-18" font-family="Helvetica,sans-Serif" font-size="10.00">genome BAM + .bai</text>
</g>
<!-- out_cx -->
<g id="node6" class="node">
<title>out_cx</title>
<polygon fill="#f0f0f0" stroke="#888888" points="259.5,-38.5 140.5,-38.5 140.5,-2.5 265.5,-2.5 265.5,-32.5 259.5,-38.5"/>
<polyline fill="none" stroke="#888888" points="259.5,-38.5 259.5,-32.5 "/>
<polyline fill="none" stroke="#888888" points="265.5,-32.5 259.5,-32.5 "/>
<text text-anchor="middle" x="203" y="-23.5" font-family="Helvetica,sans-Serif" font-size="10.00">hmc / mc / modc</text>
<text text-anchor="middle" x="203" y="-12.5" font-family="Helvetica,sans-Serif" font-size="10.00">cytosine reports + .tbi</text>
</g>
<!-- out_vcf -->
<g id="node7" class="node">
<title>out_vcf</title>
<polygon fill="#f0f0f0" stroke="#888888" points="436.5,-41 287.5,-41 287.5,0 442.5,0 442.5,-35 436.5,-41"/>
<polyline fill="none" stroke="#888888" points="436.5,-41 436.5,-35 "/>
<polyline fill="none" stroke="#888888" points="442.5,-35 436.5,-35 "/>
<text text-anchor="middle" x="365" y="-29" font-family="Helvetica,sans-Serif" font-size="10.00">germline VCF + .tbi</text>
<text text-anchor="middle" x="365" y="-18" font-family="Helvetica,sans-Serif" font-size="10.00">(empty when</text>
<text text-anchor="middle" x="365" y="-7" font-family="Helvetica,sans-Serif" font-size="10.00">callGermlineVariants=false)</text>
</g>
<!-- out_qc -->
<g id="node8" class="node">
<title>out_qc</title>
<polygon fill="#f0f0f0" stroke="#888888" points="607,-41 465,-41 465,0 613,0 613,-35 607,-41"/>
<polyline fill="none" stroke="#888888" points="607,-41 607,-35 "/>
<polyline fill="none" stroke="#888888" points="613,-35 607,-35 "/>
<text text-anchor="middle" x="539" y="-29" font-family="Helvetica,sans-Serif" font-size="10.00">summary.csv / .html / .xlsx</text>
<text text-anchor="middle" x="539" y="-18" font-family="Helvetica,sans-Serif" font-size="10.00">multiqc_report.html</text>
<text text-anchor="middle" x="539" y="-7" font-family="Helvetica,sans-Serif" font-size="10.00">metrics_definitions.csv</text>
</g>
<!-- bwa -->
<g id="node10" class="node">
<title>bwa</title>
<polygon fill="#dcecc9" stroke="#6b8e4e" points="226,-388 152,-388 152,-352 226,-352 226,-388"/>
<text text-anchor="middle" x="189" y="-373" font-family="Helvetica,sans-Serif" font-size="10.00">BWA_MEM2</text>
<text text-anchor="middle" x="189" y="-362" font-family="Helvetica,sans-Serif" font-size="10.00">~1.3h</text>
</g>
<!-- prelude&#45;&gt;bwa -->
<g id="edge1" class="edge">
<title>prelude&#45;&gt;bwa</title>
<path fill="none" stroke="#555555" d="M189,-418.98C189,-412.64 189,-405.48 189,-398.67"/>
<polygon fill="#555555" stroke="#555555" points="192.5,-398.41 189,-388.41 185.5,-398.41 192.5,-398.41"/>
</g>
<!-- dedup -->
<g id="node11" class="node">
<title>dedup</title>
<polygon fill="#f7dcc9" stroke="#b5723f" points="277,-320 101,-320 101,-279 277,-279 277,-320"/>
<text text-anchor="middle" x="189" y="-308" font-family="Helvetica,sans-Serif" font-size="10.00">MERGE_LANES_ULTIMA_DEDUP</text>
<text text-anchor="middle" x="189" y="-297" font-family="Helvetica,sans-Serif" font-size="10.00">global dedup over all lanes</text>
<text text-anchor="middle" x="189" y="-286" font-family="Helvetica,sans-Serif" font-size="10.00">~17.9h, SERIAL &#45;&#45; the bottleneck</text>
</g>
<!-- bwa&#45;&gt;dedup -->
<g id="edge2" class="edge">
<title>bwa&#45;&gt;dedup</title>
<path fill="none" stroke="#555555" d="M189,-351.71C189,-345.32 189,-337.88 189,-330.68"/>
<polygon fill="#555555" stroke="#555555" points="192.5,-330.45 189,-320.45 185.5,-330.45 192.5,-330.45"/>
</g>
<!-- bamlet -->
<g id="node12" class="node">
<title>bamlet</title>
<polygon fill="#dcecc9" stroke="#6b8e4e" points="217,-248 161,-248 161,-212 217,-212 217,-248"/>
<text text-anchor="middle" x="189" y="-233" font-family="Helvetica,sans-Serif" font-size="10.00">BAMLET</text>
<text text-anchor="middle" x="189" y="-222" font-family="Helvetica,sans-Serif" font-size="10.00">~1.35h</text>
</g>
<!-- dedup&#45;&gt;bamlet -->
<g id="edge3" class="edge">
<title>dedup&#45;&gt;bamlet</title>
<path fill="none" stroke="#555555" d="M189,-278.98C189,-272.64 189,-265.48 189,-258.67"/>
<polygon fill="#555555" stroke="#555555" points="192.5,-258.41 189,-248.41 185.5,-258.41 192.5,-258.41"/>
</g>
<!-- qc -->
<g id="node13" class="node">
<title>qc</title>
<polygon fill="#dcecc9" stroke="#6b8e4e" points="255.5,-178.5 70.5,-178.5 70.5,-142.5 255.5,-142.5 255.5,-178.5"/>
<text text-anchor="middle" x="163" y="-163.5" font-family="Helvetica,sans-Serif" font-size="10.00">QUALIMAP_BAMQC | TSS_BIAS</text>
<text text-anchor="middle" x="163" y="-152.5" font-family="Helvetica,sans-Serif" font-size="10.00">PICARD_GCBIAS | GENOME_MBIAS</text>
</g>
<!-- bamlet&#45;&gt;qc -->
<g id="edge4" class="edge">
<title>bamlet&#45;&gt;qc</title>
<path fill="none" stroke="#555555" d="M182.44,-211.97C179.66,-204.75 176.35,-196.16 173.26,-188.14"/>
<polygon fill="#555555" stroke="#555555" points="176.51,-186.84 169.65,-178.76 169.98,-189.35 176.51,-186.84"/>
</g>
<!-- epi -->
<g id="node14" class="node">
<title>epi</title>
<polygon fill="#dcecc9" stroke="#6b8e4e" points="517,-181 277,-181 277,-140 517,-140 517,-181"/>
<text text-anchor="middle" x="397" y="-169" font-family="Helvetica,sans-Serif" font-size="10.00">EPIQUANT_BAM2ZARR &#45;&gt; MODALITY_EXPORT</text>
<text text-anchor="middle" x="397" y="-158" font-family="Helvetica,sans-Serif" font-size="10.00">&#45;&gt; JOIN_ZARR_STORES</text>
<text text-anchor="middle" x="397" y="-147" font-family="Helvetica,sans-Serif" font-size="10.00">genome + long_ctrl + short_ctrl</text>
</g>
<!-- bamlet&#45;&gt;epi -->
<g id="edge5" class="edge">
<title>bamlet&#45;&gt;epi</title>
<path fill="none" stroke="#555555" d="M217.05,-219.9C245.04,-210.81 289.18,-196.49 326.73,-184.3"/>
<polygon fill="#555555" stroke="#555555" points="328.19,-187.51 336.63,-181.09 326.03,-180.85 328.19,-187.51"/>
</g>
<!-- summary -->
<g id="node15" class="node">
<title>summary</title>
<polygon fill="#dcecc9" stroke="#6b8e4e" points="383,-109 185,-109 185,-73 383,-73 383,-109"/>
<text text-anchor="middle" x="284" y="-88.5" font-family="Helvetica,sans-Serif" font-size="10.00">DQSPY | MULTIQC | PIPELINE_REPORT</text>
</g>
<!-- qc&#45;&gt;summary -->
<g id="edge6" class="edge">
<title>qc&#45;&gt;summary</title>
<path fill="none" stroke="#555555" d="M193.53,-142.47C209.01,-133.83 227.99,-123.25 244.56,-114"/>
<polygon fill="#555555" stroke="#555555" points="246.45,-116.96 253.48,-109.03 243.04,-110.84 246.45,-116.96"/>
</g>
<!-- epi&#45;&gt;summary -->
<g id="edge7" class="edge">
<title>epi&#45;&gt;summary</title>
<path fill="none" stroke="#555555" d="M364.32,-139.98C350.95,-131.99 335.4,-122.71 321.57,-114.44"/>
<polygon fill="#555555" stroke="#555555" points="323.15,-111.31 312.77,-109.18 319.56,-117.32 323.15,-111.31"/>
</g>
<!-- summary&#45;&gt;out_bam -->
<g id="edge13" class="edge">
<title>summary&#45;&gt;out_bam</title>
<path fill="none" stroke="#555555" d="M202.62,-65C177.52,-57.29 150.23,-48.91 126.37,-41.58"/>
<polygon fill="#555555" stroke="#555555" points="127.1,-38.14 116.51,-38.55 125.04,-44.83 127.1,-38.14"/>
</g>
<!-- summary&#45;&gt;out_cx -->
<g id="edge14" class="edge">
<title>summary&#45;&gt;out_cx</title>
<path fill="none" stroke="#555555" d="M254.44,-65C246.8,-58.54 238.59,-51.6 231.02,-45.2"/>
<polygon fill="#555555" stroke="#555555" points="233.05,-42.33 223.15,-38.54 228.53,-47.67 233.05,-42.33"/>
</g>
<!-- summary&#45;&gt;out_vcf -->
<g id="edge15" class="edge">
<title>summary&#45;&gt;out_vcf</title>
<path fill="none" stroke="#555555" d="M313.56,-65C320.21,-59.38 327.28,-53.4 333.98,-47.73"/>
<polygon fill="#555555" stroke="#555555" points="336.32,-50.33 341.7,-41.2 331.8,-44.99 336.32,-50.33"/>
</g>
<!-- summary&#45;&gt;out_qc -->
<g id="edge16" class="edge">
<title>summary&#45;&gt;out_qc</title>
<path fill="none" stroke="#555555" d="M377.06,-65C402.97,-58.04 430.93,-50.53 456.21,-43.74"/>
<polygon fill="#555555" stroke="#555555" points="457.28,-47.08 466.03,-41.1 455.47,-40.32 457.28,-47.08"/>
</g>
<!-- lg_wdl -->
<g id="node16" class="node">
<title>lg_wdl</title>
<path fill="#d6e4f0" stroke="#4a7ba7" d="M470.5,-805C470.5,-805 375.5,-805 375.5,-805 369.5,-805 363.5,-799 363.5,-793 363.5,-793 363.5,-781 363.5,-781 363.5,-775 369.5,-769 375.5,-769 375.5,-769 470.5,-769 470.5,-769 476.5,-769 482.5,-775 482.5,-781 482.5,-781 482.5,-793 482.5,-793 482.5,-799 476.5,-805 470.5,-805"/>
<text text-anchor="middle" x="423" y="-790" font-family="Helvetica,sans-Serif" font-size="10.00">WDL task</text>
<text text-anchor="middle" x="423" y="-779" font-family="Helvetica,sans-Serif" font-size="10.00">(a Cromwell call&#45; dir)</text>
</g>
<!-- lg_nf -->
<g id="node17" class="node">
<title>lg_nf</title>
<polygon fill="#dcecc9" stroke="#6b8e4e" points="490.5,-735.5 355.5,-735.5 355.5,-699.5 490.5,-699.5 490.5,-735.5"/>
<text text-anchor="middle" x="423" y="-720.5" font-family="Helvetica,sans-Serif" font-size="10.00">Nextflow process</text>
<text text-anchor="middle" x="423" y="-709.5" font-family="Helvetica,sans-Serif" font-size="10.00">(submitted by Nextflow)</text>
</g>
<!-- lg_wdl&#45;&gt;lg_nf -->
<!-- lg_dat -->
<g id="node18" class="node">
<title>lg_dat</title>
<polygon fill="#f0f0f0" stroke="#888888" points="444,-657 396,-657 396,-621 450,-621 450,-651 444,-657"/>
<polyline fill="none" stroke="#888888" points="444,-657 444,-651 "/>
<polyline fill="none" stroke="#888888" points="450,-651 444,-651 "/>
<text text-anchor="middle" x="423" y="-636.5" font-family="Helvetica,sans-Serif" font-size="10.00">data</text>
</g>
<!-- lg_nf&#45;&gt;lg_dat -->
</g>
</svg>
